<svg xmlns="http://www.w3.org/2000/svg" xmlns:xlink="http://www.w3.org/1999/xlink" viewBox="0 0 177 260"><defs><style>.a{fill:#292828;}.b{fill:url(#a);}</style><linearGradient id="a" x1="-72.81" y1="291.89" x2="-71.81" y2="292.14" gradientTransform="matrix(150.91, -126.63, -100.92, -120.27, 40460.22, 26137.56)" gradientUnits="userSpaceOnUse"><stop offset="0" stop-color="#faa229"/><stop offset="1" stop-color="#c43804"/></linearGradient></defs><title>Kabanero</title><path class="a" d="M115.71,97.56c0-3,3.59-1.41,8.46-8.8a111.18,111.18,0,0,0,9.11-17.3,188.23,188.23,0,0,0,6.2-21.19,51.12,51.12,0,0,0,.05-18.75q-1-5.53-6-12.76a37.51,37.51,0,0,0-6.2-5.3c-2.5-1.58-2.91-1.66-5.49-1.84a9.81,9.81,0,0,0-4.66,1.13c-.32,0-.61-1.12-.27-2.82s1.2-.83,2.3-3.81S119.14.68,120.32.76s.05,0,4,3,5.84,3.2,9.55,6.38a36.08,36.08,0,0,1,9.41,11.56,36.68,36.68,0,0,1,4.88,16.46c.37,5.38.62,4.21.55,12q-.06,7.81-3.82,21.21l-3.51,12A102.44,102.44,0,0,0,137.4,97c-.64,3.88-1,4.45.27,8.47s3.86,5.11,3.85,5.92-1.59,3.11-6.68,1.55-6.37-2.42-10.45-5S115.68,100.52,115.71,97.56Z"/><path class="b" d="M164.5,126h0c8.62,6.65,13.77,26.67,12.07,40s-1.7,12.87-13.42,29.39-44.3,35.68-50,40.33-16.5,12.48-24.93,17-7.66,4.54-17.94,6.16-11.16.66-24.63-.09-14.16-.71-19.66-1.93-10.87-3-12.72-5.23-5-7.85-8.25-24.56A.31.31,0,0,1,5,227C1.74,210.23.65,208.53.34,192.21s3.16-32,10.3-52.14,29-43.44,37.13-50.22S59.91,82.14,68.7,80.2s19.6,0,29.08,7.51,15.7,18,23.44,23.61q7.74,5.64,25.1,7.76,9.56.24,18.18,6.89Zm-32.6-4.29c-6-1.22-14.51-3.69-29-10.33-23.6-10.77-19.29-17.15-32.69-16.12-14.07,1.07-18.86,31.5-35.64,50.58-20,22.75-24.63,66-19.22,84.24.2.7.38,1.34.53,1.93,3.21,8.47,9.46,17.87,14.34,18.38,8.47.89,16.11,5.56,30.58-2.9,16.08-9.41,37.9-18.95,52.43-32.79,15.46-14.71,42.15-45.3,43.32-59.87C159.07,123.12,136.57,123.63,131.9,121.69Z"/></svg>