<svg xmlns="http://www.w3.org/2000/svg" xmlns:xlink="http://www.w3.org/1999/xlink" viewBox="0 0 16 16"><defs><style>.a{fill:url(#a);}.b{fill:#fff;}</style><linearGradient id="a" y1="8.09" x2="16" y2="8.09" gradientUnits="userSpaceOnUse"><stop offset="0" stop-color="#faa229"/><stop offset="1" stop-color="#c43804"/></linearGradient></defs><title>Kabanero</title><rect class="a" y="0.02" width="16" height="16.13"/><path class="b" d="M10,6c0-.18.23-.09.53-.54a7.58,7.58,0,0,0,.56-1.07,11.45,11.45,0,0,0,.38-1.31,3.24,3.24,0,0,0,0-1.16,2.38,2.38,0,0,0-.37-.79,2.44,2.44,0,0,0-.39-.33.54.54,0,0,0-.33-.11.63.63,0,0,0-.29.07s0-.07,0-.17.07-.06.14-.24,0-.34.07-.33,0,0,.24.19a6,6,0,0,1,.59.39,2.15,2.15,0,0,1,.58.71,2.42,2.42,0,0,1,.31,1,6.86,6.86,0,0,1,0,.74,5,5,0,0,1-.24,1.31l-.21.75a6.59,6.59,0,0,0-.25.83.81.81,0,0,0,0,.53c.08.25.24.31.24.36s-.1.2-.41.1a2.06,2.06,0,0,1-.65-.31C10.32,6.47,10,6.17,10,6Z"/><path class="b" d="M13.05,7.74h0a3.17,3.17,0,0,1,.74,2.47c-.1.83-.1.8-.83,1.82a15.36,15.36,0,0,1-3.08,2.49,11.76,11.76,0,0,1-1.54,1.05A2.2,2.2,0,0,1,7.23,16a5.48,5.48,0,0,1-1.52,0,6.62,6.62,0,0,1-1.22-.12,1.75,1.75,0,0,1-.78-.32A3.5,3.5,0,0,1,3.2,14h0a8.47,8.47,0,0,1-.29-2.14,8.84,8.84,0,0,1,.63-3.22,9.17,9.17,0,0,1,2.3-3.11,2.37,2.37,0,0,1,1.29-.59,2.15,2.15,0,0,1,1.8.46c.58.47,1,1.11,1.44,1.46a3.49,3.49,0,0,0,1.55.48,1.93,1.93,0,0,1,1.13.42Zm-2-.26a8.81,8.81,0,0,1-1.79-.64c-1.46-.66-1.19-1.06-2-1S6.06,7.79,5,9a6.7,6.7,0,0,0-1.19,5.2,1,1,0,0,1,0,.12c.2.53.59,1.11.89,1.14a2.3,2.3,0,0,0,1.89-.18,17.14,17.14,0,0,0,3.24-2c.95-.91,2.6-2.79,2.67-3.69C12.71,7.57,11.32,7.6,11,7.48Z"/></svg>